# AST/ASF file generated using VICON BodyLanguage
# -----------------------------------------------
:version 1.10
:name VICON
:units
  mass 1.0
  length 0.45
  angle deg
:documentation
   .ast/.asf automatically generated from VICON data using
   VICON BodyBuilder and BodyLanguage model FoxedUp or BRILLIANT.MOD
:root
   order TX TY TZ RX RY RZ
   axis XYZ
   position 0 0 0  
   orientation 0 0 0 
:bonedata
  begin
     id 1 
     name lhipjoint
     direction 0.561001 -0.76473 0.316963 
     length 2.4722 
     axis 0 0 0  XYZ
  end
  begin
     id 2 
     name lfemur
     direction 0.34202 -0.939693 0  
     length 7.59403  
     axis 0 0 20  XYZ
    dof rx ry rz
    limits (-160.0 20.0)
           (-70.0 70.0)
           (-60.0 70.0)
  end
  begin
     id 3 
     name ltibia
     direction 0.34202 -0.939693 0   
     length 7.89655   
     axis 0 0 20   XYZ
    dof rx
    limits (-10.0 170.0)
  end
  begin
     id 4 
     name lfoot
     direction 0.061296 -0.168409 0.98381   
     length 2.73287   
     axis -90 7.62852e-016 20   XYZ
    dof rx rz
    limits (-45.0 90.0)
           (-70.0 20.0)
  end
  begin
     id 5 
     name ltoes
     direction 1.53547e-011 -4.21984e-011 1   
     length 1.37057   
     axis -90 7.62852e-016 20   XYZ
    dof rx
    limits (-90.0 20.0)
  end
  begin
     id 6 
     name rhipjoint
     direction -0.559611 -0.765599 0.317323   
     length 2.46939  
     axis 0 0 0  XYZ 
  end
  begin
     id 7 
     name rfemur
     direction -0.34202 -0.939693 0   
     length 7.53712   
     axis 0 0 -20   XYZ
    dof rx ry rz
    limits (-160.0 20.0)
           (-70.0 70.0)
           (-70.0 60.0)
  end
  begin
     id 8 
     name rtibia
     direction -0.34202 -0.939693 0   
     length 8.12549   
     axis 0 0 -20   XYZ
    dof rx
    limits (-10.0 170.0)
 end
 begin
     id 9 
     name rfoot
     direction -0.066984 -0.184037 0.980634   
     length 2.67541  
     axis -90 -7.62852e-016 -20   XYZ
    dof rx rz
    limits (-45.0 90.0)
           (-20.0 70.0)
  end
  begin
     id 10 
     name rtoes
     direction -1.53549e-011 -4.21786e-011 1   
     length 1.34085   
     axis -90 -7.62852e-016 -20   XYZ
    dof rx
    limits (-90.0 20.0)
  end
  begin
     id 11 
     name lowerback
     direction -0.0522728 0.992594 -0.109658   
     length 2.05633   
     axis 0 0 0   XYZ
    dof rx ry rz
    limits (-20.0 45.0)
           (-30.0 30.0)
           (-30.0 30.0)
  end
  begin
     id 12 
     name upperback
     direction 0.00589338 0.999977 0.00335704   
     length 2.05845   
     axis 0 0 0   XYZ
    dof rx ry rz
    limits (-20.0 45.0)
           (-30.0 30.0)
           (-30.0 30.0)
  end
  begin
     id 13 
     name thorax
     direction 0.0292928 0.998059 0.0549487   
     length 2.09281   
     axis 0 0 0   XYZ
    dof rx ry rz
    limits (-20.0 45.0)
           (-30.0 30.0)
           (-30.0 30.0)
  end
  begin
     id 14 
     name lowerneck
     direction 0.0356368 0.980775 0.191858   
     length 1.84767   
     axis 0 0 0   XYZ
    dof rx ry rz
    limits (-20.0 45.0)
           (-30.0 30.0)
           (-30.0 30.0)
  end
  begin
     id 15 
     name upperneck
     direction -0.0227605 0.98931 -0.14404   
     length 1.89582   
     axis 0 0 0   XYZ
    dof rx ry rz
    limits (-20.0 45.0)
           (-30.0 30.0)
           (-30.0 30.0)
  end
  begin
     id 16
     name head
     direction -0.00932985 0.997511 -0.0698904  
     length 1.90213  
     axis 0 0 0   XYZ
    dof rx ry rz
    limits (-20.0 45.0)
           (-30.0 30.0)
           (-30.0 30.0)
  end
  begin
     id 17 
     name lclavicle
     direction 0.873442 0.479511 0.0846686  
     length 3.41193  
     axis 0 0 0   XYZ
    dof ry rz
    limits (-20.0 10.0)
           (0.0 20.0)
  end
  begin
     id 18 
     name lhumerus
     direction 1 -4.4897e-011 -5.62117e-018   
     length 5.59864   
     axis 180 -30 -90   XYZ
    dof rx ry rz
    limits (-60.0 90.0)
           (-90.0 90.0)
           (-90.0 90.0)
  end
  begin
     id 19
     name lradius
     direction 1 -4.48966e-011 -6.26295e-027   
     length 3.59542   
     axis 180 -30 -90   XYZ
    dof rx
    limits (-10.0 170.0)
  end
  begin
     id 20
     name lwrist
     direction 1 -4.48947e-011 -1.74096e-026   
     length 1.79771   
     axis 1.04567e-014 90 90   XYZ
    dof ry
    limits (-180.0 0.0)
 end
  begin
     id 21 
     name lhand
     direction 1 -4.49085e-011 -3.48469e-026   
     length 0.572014   
     axis 2.22196e-014 90 90   XYZ
    dof rx rz
    limits (-90.0 90.0)
           (-45.0 45.0)
  end
  begin
     id 22 
     name lfingers
     direction 1 -4.48884e-011 -6.96135e-026   
     length 0.461173   
     axis 4.44383e-014 90 90   XYZ
    dof rx
    limits (0.0 90.0)
  end
  begin
     id 23
     name lthumb
     direction 0.707107 -6.34976e-011 0.707107   
     length 0.662154   
     axis -90 45 -5.4397e-014   XYZ
    dof rx rz
    limits (-45.0 45.0)
           (-45.0 45.0)
  end
  begin
     id 24 
     name rclavicle
     direction -0.890242 0.443271 0.104786   
     length 3.46753  
     axis 0 0 0   XYZ 
    dof ry rz
    limits (-10.0 20.0)
           (-20.0 0.0)
  end
  begin
     id 25 
     name rhumerus
     direction -1 -4.48963e-011 -5.41723e-018  
     length 5.8094   
     axis 180 30 90   XYZ
    dof rx ry rz
    limits (-90.0 60.0)
           (-90.0 90.0)
           (-90.0 90.0)
  end
  begin
     id 26 
     name rradius
     direction -1 -4.48958e-011 -6.51059e-027   
     length 3.66953   
     axis 180 30 90   XYZ
    dof rx
    limits (-10.0 170.0)
  end
  begin
     id 27 
     name rwrist
     direction -1 -4.48975e-011 -1.74124e-026   
     length 1.83476   
     axis 1.04567e-014 -90 -90   XYZ
    dof ry
    limits (-180.0 0.0)
  end
  begin
     id 28
     name rhand
     direction -1 -4.49013e-011 -3.48326e-026   
     length 0.57843   
     axis 2.22196e-014 -90 -90   XYZ
    dof rx rz
    limits (-90.0 90.0)
           (-45.0 45.0)
  end
  begin
     id 29
     name rfingers
     direction -1 -4.49023e-011 -6.9669e-026   
     length 0.466345   
     axis 4.44383e-014 -90 -90   XYZ
    dof rx
    limits (0.0 90.0)
  end
  begin
     id 30
     name rthumb
     direction -0.707107 -6.34926e-011 0.707107   
     length 0.669581   
     axis -90 -45 5.4397e-014   XYZ
    dof rx rz
    limits (-45.0 45.0)
           (-45.0 45.0)
  end
:hierarchy
  begin
    root lhipjoint rhipjoint lowerback
    lhipjoint lfemur
    lfemur ltibia
    ltibia lfoot
    lfoot ltoes
    rhipjoint rfemur
    rfemur rtibia
    rtibia rfoot
    rfoot rtoes
    lowerback upperback
    upperback thorax
    thorax lowerneck lclavicle rclavicle
    lowerneck upperneck
    upperneck head
    lclavicle lhumerus
    lhumerus lradius
    lradius lwrist
    lwrist lhand lthumb
    lhand lfingers
    rclavicle rhumerus
    rhumerus rradius
    rradius rwrist
    rwrist rhand rthumb
    rhand rfingers
  end

#!OML:ASF H:\SkateBoarding\Project 1\Capture day 1\Session 1\Skater.ASF
:FULLY-SPECIFIED
:DEGREES
148
root 4.82947 18.3606 19.8504 1.03688 56.1153 2.72557
lowerback 10.9974 -3.83983 -4.20686
upperback -0.36898 -5.74624 -1.68515
thorax -6.31042 -2.69758 1.50455
lowerneck -15.9632 -3.92406 -1.70116
upperneck 42.9701 -3.87977 -1.63902
head 19.133 -1.76303 -1.17978
rclavicle 3.4514e-014 3.33958e-014
rhumerus -35.5809 16.8897 -74.433
rradius 56.9542
rwrist -15.8457
rhand -32.5618 -1.07066
rfingers 7.12502
rthumb -5.79116 -30.9715
lclavicle 3.4514e-014 3.33958e-014
lhumerus -1.95093 -30.5343 86.3475
lradius 95.7105
lwrist 25.2254
lhand -25.8539 12.0284
lfingers 7.12502
lthumb 0.686856 42.0071
rfemur -24.2737 -0.68928 24.0605
rtibia 66.3332
rfoot -50.6553 0.482675
rtoes -11.9692
lfemur -16.0691 5.94051 -9.23412
ltibia 82.446
lfoot -36.5988 -0.430756
ltoes -22.6571
149
root 4.81784 18.3897 20.2425 0.806388 56.8956 2.70236
lowerback 10.9314 -3.89131 -4.34436
upperback -0.355077 -5.83951 -1.90307
thorax -6.26397 -2.74274 1.36116
lowerneck -15.781 -4.02574 -1.52103
upperneck 43.089 -4.1592 -1.49821
head 19.1532 -1.81776 -1.19663
rclavicle -1.26601e-013 2.70347e-014
rhumerus -36.4484 16.2104 -74.9396
rradius 57.3326
rwrist -15.8565
rhand -32.628 -1.01561
rfingers 7.12502
rthumb -5.8551 -30.9147
lclavicle -1.26601e-013 2.70347e-014
lhumerus -3.08831 -30.7298 86.7569
lradius 95.8636
lwrist 25.4456
lhand -26.0019 12.1248
lfingers 7.12502
lthumb 0.543916 42.1039
rfemur -23.7736 -1.19686 24.0027
rtibia 65.8761
rfoot -50.5932 0.285541
rtoes -11.0109
lfemur -15.7385 6.29445 -9.74176
ltibia 80.6242
lfoot -37.6049 1.13172
ltoes -22.7538
150
root 4.81007 18.4183 20.6365 0.642889 57.7012 2.75
lowerback 10.7564 -3.96193 -4.64397
upperback -0.284168 -5.96245 -2.03645
thorax -6.06887 -2.80122 1.38744
lowerneck -15.649 -4.12875 -1.53214
upperneck 43.1815 -4.3912 -1.30972
head 19.1824 -1.87958 -1.14755
rclavicle 3.55576e-014 1.59028e-015
rhumerus -37.2154 15.5724 -75.325
rradius 57.7085
rwrist -15.794
rhand -32.6438 -0.90742
rfingers 7.12502
rthumb -5.87029 -30.8061
lclavicle 3.55576e-014 1.59028e-015
lhumerus -4.14268 -30.7935 87.2108
lradius 95.9434
lwrist 25.6866
lhand -26.1898 12.2383
lfingers 7.12502
lthumb 0.362443 42.2178
rfemur -23.3189 -1.67403 23.8363
rtibia 65.4762
rfoot -50.4431 0.0324953
rtoes -11.4693
lfemur -15.2756 6.49805 -10.2788
ltibia 78.6161
lfoot -38.7485 2.71938
ltoes -22.49
151
root 4.80157 18.444 21.0278 0.435302 58.5515 2.6476
lowerback 10.5841 -4.04046 -4.80118
upperback -0.261279 -6.07931 -2.15574
thorax -5.93904 -2.85917 1.35111
lowerneck -15.5457 -4.23948 -1.47162
upperneck 43.2852 -4.61721 -1.21955
head 19.2203 -1.9402 -1.15848
rclavicle 4.66647e-014 7.95139e-016
rhumerus -38.078 15.0237 -75.7256
rradius 58.1415
rwrist -15.9065
rhand -32.7608 -0.928601
rfingers 7.12502
rthumb -5.98327 -30.8241
lclavicle 4.66647e-014 7.95139e-016
lhumerus -5.23282 -30.9088 87.6934
lradius 96.0036
lwrist 25.9821
lhand -26.1258 12.4831
lfingers 7.12502
lthumb 0.424205 42.4624
rfemur -22.9982 -2.0941 23.705
rtibia 65.1258
rfoot -50.5114 -0.00951435
rtoes -10.993
lfemur -14.8524 6.61476 -10.6979
ltibia 76.4376
lfoot -39.8458 4.55558
ltoes -22.6975
152
root 4.79249 18.4656 21.4144 0.0720296 59.4753 2.28557
lowerback 10.3647 -4.18597 -4.83861
upperback -0.228192 -6.26311 -2.21053
thorax -5.77347 -2.95466 1.32046
lowerneck -15.4588 -4.32074 -1.44774
upperneck 43.3323 -4.80987 -1.07782
head 19.231 -1.9887 -1.13033
rclavicle -3.75206e-014 -2.14687e-014
rhumerus -38.9091 14.5998 -76.1256
rradius 58.6244
rwrist -16.0606
rhand -32.7878 -0.908187
rfingers 7.12502
rthumb -6.0093 -30.803
lclavicle -3.75206e-014 -2.14687e-014
lhumerus -6.25702 -30.8735 88.1125
lradius 96.0085
lwrist 26.2955
lhand -26 12.7395
lfingers 7.12502
lthumb 0.545704 42.7186
rfemur -22.8437 -2.55374 23.693
rtibia 64.8368
rfoot -50.5222 -0.381249
rtoes -11.1703
lfemur -14.4737 6.59755 -10.9377
ltibia 74.1382
lfoot -40.6608 6.12055
ltoes -22.6365
153
root 4.78554 18.4831 21.8013 -0.147923 60.4106 2.13639
lowerback 10.1795 -4.30063 -5.01705
upperback -0.190193 -6.42447 -2.28715
thorax -5.61075 -3.03486 1.34241
lowerneck -15.3886 -4.43573 -1.39732
upperneck 43.4154 -5.02976 -1.01272
head 19.2652 -2.05264 -1.15077
rclavicle 4.84165e-014 -1.66979e-014
rhumerus -39.8164 14.1255 -76.5185
rradius 59.1355
rwrist -16.1726
rhand -32.7731 -0.823759
rfingers 7.12502
rthumb -5.99512 -30.7189
lclavicle 4.84165e-014 -1.66979e-014
lhumerus -7.27929 -30.9226 88.5899
lradius 95.9598
lwrist 26.6793
lhand -26.1036 12.8957
lfingers 7.12502
lthumb 0.44572 42.875
rfemur -22.6465 -2.90222 23.478
rtibia 64.6193
rfoot -50.5943 -0.0889085
rtoes -10.4849
lfemur -13.9697 6.31594 -11.2811
ltibia 71.7556
lfoot -41.2629 7.18871
ltoes -22.2684
154
root 4.77863 18.4938 22.1837 -0.355456 61.4005 1.94367
lowerback 9.96152 -4.44338 -5.1681
upperback -0.150136 -6.61421 -2.3138
thorax -5.42237 -3.13067 1.40052
lowerneck -15.3282 -4.54579 -1.50328
upperneck 43.4388 -5.23345 -0.841601
head 19.2776 -2.12315 -1.08766
rclavicle 8.14023e-014 3.65764e-014
rhumerus -40.6859 13.8027 -76.8339
rradius 59.6356
rwrist -16.325
rhand -32.8322 -0.878557
rfingers 7.12502
rthumb -6.05224 -30.7721
lclavicle 8.14023e-014 3.65764e-014
lhumerus -8.18238 -30.8854 89.1044
lradius 95.7658
lwrist 26.931
lhand -26.0902 13.121
lfingers 7.12502
lthumb 0.458638 43.1003
rfemur -22.5891 -3.25328 23.2316
rtibia 64.4886
rfoot -50.5272 0.599848
rtoes -9.0229
lfemur -13.4402 6.00966 -11.5752
ltibia 69.5398
lfoot -42.7912 6.67866
ltoes -24.0479
